<svg xmlns="http://www.w3.org/2000/svg" width="96" height="96" viewBox="0 0 96 96" role="img" aria-label="Tử Vi Minh Đường">
  <defs>
    <linearGradient id="md-sun" x1="18" y1="12" x2="78" y2="86" gradientUnits="userSpaceOnUse">
      <stop offset="0" stop-color="#f97316"/>
      <stop offset="0.54" stop-color="#f59e0b"/>
      <stop offset="1" stop-color="#10b981"/>
    </linearGradient>
    <filter id="md-shadow" x="-20%" y="-20%" width="140%" height="140%">
      <feDropShadow dx="0" dy="10" stdDeviation="9" flood-color="#9a3412" flood-opacity=".18"/>
    </filter>
  </defs>
  <rect width="96" height="96" rx="28" fill="#fff7ed"/>
  <circle cx="48" cy="48" r="34" fill="#fffaf0" stroke="#fed7aa" stroke-width="3"/>
  <g filter="url(#md-shadow)">
    <path d="M48 16a32 32 0 1 1-22.6 54.6 32 32 0 0 0 45.2-45.2A31.9 31.9 0 0 1 48 16Z" fill="url(#md-sun)"/>
    <path d="M48 23a25 25 0 0 1 0 50 12.5 12.5 0 0 0 0-25 12.5 12.5 0 0 1 0-25Z" fill="#fff7ed"/>
    <circle cx="48" cy="35.5" r="4.5" fill="#f97316"/>
    <circle cx="48" cy="60.5" r="4.5" fill="#10b981"/>
  </g>
  <path d="M25 48h46M48 25v46M31.7 31.7l32.6 32.6M64.3 31.7 31.7 64.3" stroke="#9a3412" stroke-width="1.6" stroke-linecap="round" opacity=".28"/>
</svg>
