<svg xmlns="http://www.w3.org/2000/svg" width="64" height="64" viewBox="0 0 96 96">
  <rect width="96" height="96" rx="24" fill="#fff7ed"/>
  <circle cx="48" cy="48" r="35" fill="#fffaf0" stroke="#fed7aa" stroke-width="4"/>
  <path d="M48 15a33 33 0 1 1-23.3 56.3 33 33 0 0 0 46.6-46.6A32.9 32.9 0 0 1 48 15Z" fill="#f97316"/>
  <path d="M48 23a25 25 0 0 1 0 50 12.5 12.5 0 0 0 0-25 12.5 12.5 0 0 1 0-25Z" fill="#fff7ed"/>
  <circle cx="48" cy="35.5" r="4.6" fill="#f97316"/>
  <circle cx="48" cy="60.5" r="4.6" fill="#10b981"/>
</svg>
