<svg xmlns="http://www.w3.org/2000/svg" width="1200" height="675" viewBox="0 0 1200 675" role="img" aria-label="Biểu đồ đại vận 10 năm trong tử vi">
  <rect width="1200" height="675" fill="#fff7ed"/>
  <rect x="110" y="92" width="980" height="492" rx="38" fill="#fff" stroke="#fed7aa" stroke-width="3"/>
  <text x="160" y="176" fill="#1c1917" font-family="Arial, sans-serif" font-size="48" font-weight="900">Đại vận 10 năm</text>
  <text x="160" y="226" fill="#57534e" font-family="Arial, sans-serif" font-size="27">Nhìn xu hướng dài hạn để lập kế hoạch</text>
  <g transform="translate(165 300)">
    <rect x="0" y="116" width="62" height="86" rx="10" fill="#34d399"/><rect x="66" y="82" width="62" height="120" rx="10" fill="#94a3b8"/>
    <rect x="156" y="65" width="62" height="137" rx="10" fill="#34d399"/><rect x="222" y="30" width="62" height="172" rx="10" fill="#94a3b8"/>
    <rect x="312" y="98" width="62" height="104" rx="10" fill="#34d399"/><rect x="378" y="58" width="62" height="144" rx="10" fill="#94a3b8"/>
    <rect x="468" y="42" width="62" height="160" rx="10" fill="#34d399"/><rect x="534" y="124" width="62" height="78" rx="10" fill="#94a3b8"/>
    <rect x="624" y="76" width="62" height="126" rx="10" fill="#34d399"/><rect x="690" y="32" width="62" height="170" rx="10" fill="#94a3b8"/>
    <path d="M0 202h796" stroke="#e7e5e4" stroke-width="4"/>
  </g>
  <rect x="504" y="268" width="120" height="38" rx="19" fill="#c2410c"/>
  <text x="529" y="294" fill="#fff" font-family="Arial, sans-serif" font-size="20" font-weight="900">Năm nay</text>
</svg>
