<svg xmlns="http://www.w3.org/2000/svg" width="1200" height="675" viewBox="0 0 1200 675" role="img" aria-label="Cung Tài Bạch và Quan Lộc trong tử vi">
  <rect width="1200" height="675" fill="#fffaf0"/>
  <circle cx="210" cy="128" r="178" fill="#ffedd5"/>
  <circle cx="1010" cy="552" r="220" fill="#dcfce7"/>
  <rect x="120" y="116" width="960" height="430" rx="36" fill="#fff" stroke="#fed7aa" stroke-width="3"/>
  <text x="170" y="210" fill="#9a3412" font-family="Arial, sans-serif" font-size="46" font-weight="900">Tài Bạch</text>
  <text x="170" y="270" fill="#57534e" font-family="Arial, sans-serif" font-size="28">Năng lực tạo và giữ nguồn lực</text>
  <rect x="170" y="330" width="360" height="34" rx="17" fill="#fdba74"/>
  <rect x="170" y="386" width="290" height="34" rx="17" fill="#34d399"/>
  <rect x="170" y="442" width="420" height="34" rx="17" fill="#f59e0b"/>
  <text x="720" y="210" fill="#047857" font-family="Arial, sans-serif" font-size="46" font-weight="900">Quan Lộc</text>
  <text x="720" y="270" fill="#57534e" font-family="Arial, sans-serif" font-size="28">Sự nghiệp, uy tín và trách nhiệm</text>
  <path d="M730 450 C790 348 850 386 900 300 C948 218 1000 270 1040 188" fill="none" stroke="#10b981" stroke-width="18" stroke-linecap="round"/>
  <circle cx="730" cy="450" r="12" fill="#10b981"/>
  <circle cx="900" cy="300" r="12" fill="#10b981"/>
  <circle cx="1040" cy="188" r="12" fill="#10b981"/>
</svg>
