<svg xmlns="http://www.w3.org/2000/svg" width="1200" height="675" viewBox="0 0 1200 675" role="img" aria-label="Minh họa Tử vi trọn đời tuổi Tân Mão 2011 nam mạng theo năm sinh 2011 và nam mạng">
  <defs>
    <linearGradient id="bg" x1="0" y1="0" x2="1" y2="1">
      <stop offset="0" stop-color="#fffaf2"/>
      <stop offset="1" stop-color="#dff3e8"/>
    </linearGradient>
    <radialGradient id="glow" cx="82%" cy="24%" r="55%">
      <stop offset="0" stop-color="#276749" stop-opacity="0.26"/>
      <stop offset="1" stop-color="#276749" stop-opacity="0"/>
    </radialGradient>
  </defs>
  <rect width="1200" height="675" fill="url(#bg)"/>
  <rect width="1200" height="675" fill="url(#glow)"/>
  <rect x="84" y="88" width="510" height="500" rx="34" fill="#fffdf8" stroke="#276749" stroke-width="3"/>
  <text x="124" y="160" font-family="Segoe UI, Arial, sans-serif" font-size="26" font-weight="700" fill="#276749">Tử vi trọn đời</text>
  <text x="124" y="240" font-family="Georgia, Times New Roman, serif" font-size="52" font-weight="700" fill="#1c4532">Tân Mão</text>
  <text x="124" y="320" font-family="Segoe UI, Arial, sans-serif" font-size="72" font-weight="800" fill="#1c4532">2011</text>
  <rect x="124" y="360" width="178" height="46" rx="23" fill="#276749" opacity="0.14"/>
  <text x="154" y="391" font-family="Segoe UI, Arial, sans-serif" font-size="24" font-weight="700" fill="#1c4532">Nam mạng</text>
  <text x="124" y="470" font-family="Segoe UI, Arial, sans-serif" font-size="20" font-weight="700" fill="#1c4532">Bản xem nhanh trên hub</text>
  <text x="124" y="510" font-family="Segoe UI, Arial, sans-serif" font-size="30" font-weight="800" fill="#276749">Tuổi MÃO</text>
  <circle cx="880" cy="324" r="220" fill="#fffdf8" stroke="#276749" stroke-width="8"/>
  <circle cx="880" cy="324" r="192" fill="none" stroke="#1c4532" stroke-opacity="0.34" stroke-width="2"/>
  <circle cx="880" cy="324" r="138" fill="none" stroke="#1c4532" stroke-opacity="0.24" stroke-width="2"/>
  <circle cx="880" cy="324" r="82" fill="none" stroke="#1c4532" stroke-opacity="0.18" stroke-width="2"/>
  <path d="M880 132V516M688 324H1072M744 188L1016 460M744 460L1016 188" stroke="#1c4532" stroke-opacity="0.18" stroke-width="1.5"/>
  <circle cx="880" cy="324" r="72" fill="#1c4532"/>
  <text x="880" y="308" text-anchor="middle" font-family="Segoe UI, Arial, sans-serif" font-size="18" font-weight="700" fill="#fffaf2">Tuổi</text>
  <text x="880" y="350" text-anchor="middle" font-family="Segoe UI, Arial, sans-serif" font-size="38" font-weight="800" fill="#fffaf2">MÃO</text>
</svg>
