<svg xmlns="http://www.w3.org/2000/svg" width="1200" height="675" viewBox="0 0 1200 675" role="img" aria-label="Minh họa Tử vi trọn đời tuổi Ất Hợi 1995 nam mạng trên Lá số tinh hoa">
  <defs>
    <linearGradient id="bg" x1="0" y1="0" x2="1" y2="1">
      <stop offset="0" stop-color="#fffaf2"/>
      <stop offset="0.62" stop-color="#fffefb"/>
      <stop offset="1" stop-color="#ddf3e4"/>
    </linearGradient>
    <radialGradient id="glow" cx="82%" cy="24%" r="55%">
      <stop offset="0" stop-color="#2f855a" stop-opacity="0.26"/>
      <stop offset="1" stop-color="#2f855a" stop-opacity="0"/>
    </radialGradient>
    <filter id="shadow" x="-20%" y="-20%" width="140%" height="140%">
      <feDropShadow dx="0" dy="18" stdDeviation="24" flood-color="#2d1f14" flood-opacity="0.15"/>
    </filter>
  </defs>
  <rect width="1200" height="675" fill="url(#bg)"/>
  <rect width="1200" height="675" fill="url(#glow)"/>
  <path d="M-40 560C150 500 256 640 430 575C620 503 720 620 898 525C1038 450 1120 474 1240 428V720H-40Z" fill="#1f4f46" opacity="0.08"/>
  <g opacity="0.16" stroke="#1f4f46" stroke-width="1.4" fill="none">
    <path d="M86 130c94-66 188-66 276 6"/>
    <path d="M890 104c96 30 170 102 196 190"/>
    <circle cx="994" cy="132" r="74"/>
    <circle cx="994" cy="132" r="112"/>
  </g>
  <g filter="url(#shadow)">
    <rect x="78" y="88" width="552" height="500" rx="34" fill="#fffdf8" stroke="#2f855a" stroke-width="3"/>
    <rect x="118" y="124" width="170" height="38" rx="19" fill="#ddf3e4"/>
    <text x="148" y="149" font-family="Segoe UI, Arial, sans-serif" font-size="17" font-weight="700" fill="#1f4f46">Lá số tinh hoa</text>
    <text x="118" y="222" font-family="Segoe UI, Arial, sans-serif" font-size="26" font-weight="700" fill="#2f855a">Tử vi trọn đời</text>
    <text x="118" y="290" font-family="Georgia, Times New Roman, serif" font-size="52" font-weight="700" fill="#1f4f46">Ất Hợi</text>
    <text x="118" y="350" font-family="Segoe UI, Arial, sans-serif" font-size="74" font-weight="800" fill="#1f4f46">1995</text>
    <rect x="118" y="390" width="172" height="44" rx="22" fill="#2f855a" opacity="0.14"/>
    <text x="148" y="419" font-family="Segoe UI, Arial, sans-serif" font-size="24" font-weight="700" fill="#1f4f46">Nam mạng</text>
    <rect x="118" y="470" width="192" height="78" rx="24" fill="#ddf3e4" stroke="#2f855a" stroke-opacity="0.26"/>
    <text x="144" y="504" font-family="Segoe UI, Arial, sans-serif" font-size="18" font-weight="700" fill="#1f4f46">Can chi</text>
    <text x="144" y="534" font-family="Segoe UI, Arial, sans-serif" font-size="26" font-weight="800" fill="#2f855a">Ất Hợi</text>
    <rect x="332" y="470" width="168" height="78" rx="24" fill="#ddf3e4" stroke="#2f855a" stroke-opacity="0.26"/>
    <text x="358" y="504" font-family="Segoe UI, Arial, sans-serif" font-size="18" font-weight="700" fill="#1f4f46">Năm sinh</text>
    <text x="358" y="534" font-family="Segoe UI, Arial, sans-serif" font-size="28" font-weight="800" fill="#2f855a">1995</text>
  </g>
  <g filter="url(#shadow)">
    <circle cx="880" cy="320" r="220" fill="#fffdf8" stroke="#2f855a" stroke-width="8"/>
    <circle cx="880" cy="320" r="196" fill="none" stroke="#1f4f46" stroke-opacity="0.38" stroke-width="2"/>
    <circle cx="880" cy="320" r="142" fill="none" stroke="#1f4f46" stroke-opacity="0.28" stroke-width="2"/>
    <circle cx="880" cy="320" r="84" fill="none" stroke="#1f4f46" stroke-opacity="0.22" stroke-width="2"/>
    <g stroke="#1f4f46" stroke-opacity="0.2" stroke-width="1.5">
      <path d="M880 124V516"/>
      <path d="M684 320H1076"/>
      <path d="M741 181L1019 459"/>
      <path d="M741 459L1019 181"/>
    </g>
    <g fill="#2f855a" opacity="0.76">
      <circle cx="880" cy="124" r="8"/>
      <circle cx="1019" cy="181" r="8"/>
      <circle cx="1076" cy="320" r="8"/>
      <circle cx="1019" cy="459" r="8"/>
      <circle cx="880" cy="516" r="8"/>
      <circle cx="741" cy="459" r="8"/>
      <circle cx="684" cy="320" r="8"/>
      <circle cx="741" cy="181" r="8"/>
    </g>
    <circle cx="880" cy="320" r="72" fill="#1f4f46"/>
    <text x="880" y="304" text-anchor="middle" font-family="Segoe UI, Arial, sans-serif" font-size="18" font-weight="700" fill="#fff9ef">Tuổi</text>
    <text x="880" y="348" text-anchor="middle" font-family="Segoe UI, Arial, sans-serif" font-size="38" font-weight="800" fill="#fff9ef">HỢI</text>
    <rect x="742" y="560" width="276" height="52" rx="26" fill="#2f855a" opacity="0.14"/>
    <text x="880" y="593" text-anchor="middle" font-family="Segoe UI, Arial, sans-serif" font-size="22" font-weight="700" fill="#1f4f46">Bài riêng theo năm sinh và giới tính</text>
  </g>
</svg>
