<svg width="1200" height="675" viewBox="0 0 1200 675" fill="none" xmlns="http://www.w3.org/2000/svg">
  <rect width="1200" height="675" rx="42" fill="#FFF7ED"/>
  <rect x="112" y="100" width="470" height="455" rx="30" fill="#FFFFFF" stroke="#FED7AA" stroke-width="4"/>
  <rect x="112" y="100" width="470" height="105" rx="30" fill="#EA580C"/>
  <text x="160" y="168" fill="#FFFFFF" font-family="Arial, sans-serif" font-size="44" font-weight="900">Xem ngày</text>
  <g font-family="Arial, sans-serif" font-weight="800" font-size="28">
    <text x="165" y="275" fill="#166534">Hoàng đạo</text>
    <text x="165" y="340" fill="#C2410C">Trực thành</text>
    <text x="165" y="405" fill="#9A3412">Nhị thập bát tú</text>
    <text x="165" y="470" fill="#57534E">Xung hợp theo tuổi</text>
  </g>
  <circle cx="820" cy="328" r="170" fill="#FFEDD5" stroke="#FDBA74" stroke-width="5"/>
  <path d="M820 170a158 158 0 0 1 0 316c-60 0-108-48-108-108s48-108 108-108c31 0 56-25 56-56s-25-44-56-44Z" fill="#FB923C"/>
  <circle cx="820" cy="238" r="28" fill="#FFF7ED"/>
  <circle cx="820" cy="418" r="28" fill="#16A34A"/>
  <text x="700" y="595" fill="#1C1917" font-family="Arial, sans-serif" font-size="42" font-weight="900">Theo tuổi &amp; loại việc</text>
</svg>
